<?xml version="1.0" encoding="UTF-8" standalone="no"?>
<svg
   xmlns:dc="http://purl.org/dc/elements/1.1/"
   xmlns:cc="http://creativecommons.org/ns#"
   xmlns:rdf="http://www.w3.org/1999/02/22-rdf-syntax-ns#"
   xmlns:svg="http://www.w3.org/2000/svg"
   xmlns="http://www.w3.org/2000/svg"
   xmlns:sodipodi="http://sodipodi.sourceforge.net/DTD/sodipodi-0.dtd"
   xmlns:inkscape="http://www.inkscape.org/namespaces/inkscape"
   sodipodi:docname="home-hero.svg"
   inkscape:version="1.0 (4035a4fb49, 2020-05-01)"
   id="svg1713"
   version="1.1"
   viewBox="0 0 116 99"
   height="99mm"
   width="116mm">
  <defs
     id="defs1707" />
  <sodipodi:namedview
     inkscape:window-maximized="1"
     inkscape:window-y="-8"
     inkscape:window-x="-8"
     inkscape:window-height="1017"
     inkscape:window-width="1920"
     showgrid="false"
     inkscape:document-rotation="0"
     inkscape:current-layer="layer1"
     inkscape:document-units="mm"
     inkscape:cy="169.03377"
     inkscape:cx="293.90964"
     inkscape:zoom="0.96430891"
     inkscape:pageshadow="2"
     inkscape:pageopacity="0.0"
     borderopacity="1.0"
     bordercolor="#666666"
     pagecolor="#ffffff"
     id="base" />
  <metadata
     id="metadata1710">
    <rdf:RDF>
      <cc:Work
         rdf:about="">
        <dc:format>image/svg+xml</dc:format>
        <dc:type
           rdf:resource="http://purl.org/dc/dcmitype/StillImage" />
        <dc:title></dc:title>
      </cc:Work>
    </rdf:RDF>
  </metadata>
  <g
     id="layer1"
     inkscape:groupmode="layer"
     inkscape:label="Layer 1">
    <g
       id="g1552"
       transform="matrix(0.06876665,0,0,0.06876665,78.653021,64.424275)"
       style="opacity:1"
       inkscape:export-xdpi="96"
       inkscape:export-ydpi="96">
      <path
         id="path1518"
         data-original="#455a64"
         fill="#455a64"
         d="M 501.333,448.004 H 64 V 10.67 C 64,4.779 59.224,0.003 53.333,0.003 47.442,0.003 42.667,4.779 42.667,10.67 v 437.333 h -32 C 4.776,448.004 0,452.779 0,458.67 c 0,5.891 4.776,10.667 10.667,10.667 h 32 v 32 c 0,5.891 4.776,10.667 10.667,10.667 5.891,0 10.666,-4.776 10.666,-10.667 v -32 h 437.333 c 5.891,0 10.667,-4.776 10.667,-10.667 0,-5.891 -4.776,-10.666 -10.667,-10.666 z" />
      <path
         id="path1520"
         class=""
         data-original="#2196f3"
         fill="#3ae765"
         d="m 96,426.67 c -5.891,-0.008 -10.66,-4.791 -10.651,-10.682 0.003,-2.414 0.825,-4.755 2.331,-6.641 L 173.013,302.68 c 1.887,-2.374 4.695,-3.832 7.723,-4.011 3.032,-0.187 5.997,0.949 8.128,3.115 l 33.003,33.024 56.96,-94.955 c 1.815,-3.027 5.01,-4.959 8.533,-5.163 3.472,-0.151 6.816,1.323 9.045,3.989 l 28.544,35.691 37.952,-180.5 c 1.217,-5.764 6.877,-9.45 12.641,-8.232 2.025,0.428 3.881,1.435 5.343,2.899 L 436.181,143.833 492.8,68.27 c 3.53,-4.716 10.215,-5.678 14.931,-2.149 4.716,3.529 5.678,10.215 2.149,14.931 -0.004,0.006 -0.009,0.012 -0.013,0.017 l -64,85.333 c -3.535,4.712 -10.221,5.666 -14.934,2.131 -0.399,-0.299 -0.777,-0.627 -1.13,-0.979 L 379.734,117.463 341.12,300.932 c -1.213,5.765 -6.87,9.454 -12.635,8.241 -2.423,-0.51 -4.593,-1.847 -6.138,-3.782 l -33.088,-41.344 -56.107,93.504 c -3.006,5.066 -9.55,6.737 -14.616,3.731 -0.752,-0.446 -1.446,-0.983 -2.066,-1.598 l -34.133,-34.133 -77.995,97.131 c -2.03,2.527 -5.1,3.995 -8.342,3.988 z" />
      <g
         id="g1522" />
      <g
         id="g1524" />
      <g
         id="g1526" />
      <g
         id="g1528" />
      <g
         id="g1530" />
      <g
         id="g1532" />
      <g
         id="g1534" />
      <g
         id="g1536" />
      <g
         id="g1538" />
      <g
         id="g1540" />
      <g
         id="g1542" />
      <g
         id="g1544" />
      <g
         id="g1546" />
      <g
         id="g1548" />
      <g
         id="g1550" />
    </g>
    <g
       transform="matrix(0.03580167,0,0,0.03580167,-0.11899567,0.23983213)"
       id="g1960"
       inkscape:export-xdpi="96"
       inkscape:export-ydpi="96">
      <g
         id="g1934">
        <g
           id="g1924">
          <path
             d="M 57.084,0 H 322.305 V 389.601 H 57.084 Z"
             fill="#d6e7fe"
             id="path1922" />
        </g>
        <g
           id="g1928">
          <path
             d="M 189.695,0 H 322.306 V 389.601 H 189.695 Z"
             fill="#accefd"
             id="path1926" />
        </g>
        <g
           id="g1932">
          <path
             d="m 107.214,48.848 h 30 V 97.02 h -30 z"
             fill="#00429b"
             id="path1930" />
        </g>
      </g>
      <g
         id="g1958">
        <g
           id="g1956">
          <g
             id="g1938">
            <path
               d="M 189.695,122.399 H 454.916 V 512 H 189.695 Z"
               fill="#eaf2fe"
               id="path1936" />
          </g>
          <g
             id="g1942">
            <path
               d="M 322.305,122.399 H 454.916 V 512 H 322.305 Z"
               fill="#d6e7fe"
               id="path1940" />
          </g>
          <path
             d="m 245.496,317.2 76.809,76.809 22.6,-76.809 -22.6,-76.809 z"
             fill="#ff5c5c"
             id="path1944" />
          <path
             d="M 322.305,240.391 V 394.009 L 399.114,317.2 Z"
             fill="#ff2929"
             id="path1946" />
          <g
             id="g1950">
            <path
               d="m 239.824,171.247 h 30 v 48.172 h -30 z"
               fill="#00429b"
               id="path1948" />
          </g>
          <g
             id="g1954">
            <path
               d="m 374.785,414.98 h 30 v 48.172 h -30 z"
               fill="#00337a"
               id="path1952" />
          </g>
        </g>
      </g>
    </g>
    <path
       id="path1995"
       d="M 11.516239,20.83347 V 32.7136 h 13.189752"
       style="fill:none;stroke:#ffffff;stroke-width:1.165;stroke-linecap:butt;stroke-linejoin:round;stroke-miterlimit:4;stroke-dasharray:1.165, 4.66;stroke-dashoffset:0;stroke-opacity:1"
       inkscape:export-xdpi="96"
       inkscape:export-ydpi="96" />
    <g
       id="g1629"
       transform="matrix(-0.10805178,0,0,0.10805178,78.822507,10.98567)"
       inkscape:export-xdpi="96"
       inkscape:export-ydpi="96">
      <path
         id="path1609"
         fill="#2edffc"
         d="m 235.63,26.192 v 105.19 h -0.53 c -8.23,0 -16.29,0.76 -24.1,2.23 -3.38,0.63 -6.72,1.4 -10,2.29 -55.21,14.98 -95.81,65.44 -95.81,125.39 0,23.59 6.29,45.73 17.29,64.8 l -28.48,53.3 -62.63,-0.7 C 11.41,344.152 0,304.052 0,261.292 0,143.022 87.31,45.162 201,28.652 c 3.31,-0.48 6.64,-0.89 10,-1.23 7.92,-0.82 15.96,-1.23 24.1,-1.23 z" />
      <path
         id="path1611"
         fill="#27bdf3"
         d="m 235.63,96.392 v 34.99 h -0.53 c -71.75,0 -129.91,58.16 -129.91,129.91 0,23.59 6.29,45.73 17.29,64.8 l -30.51,17.61 C 77.99,319.482 70,291.362 70,261.392 c 0,-91.13 73.87,-165 165,-165 z" />
      <path
         id="path1613"
         fill="#fad207"
         d="m 276.536,492.752 c -13.443,2.388 -27.297,3.64 -41.435,3.64 -87.087,0 -163.109,-47.346 -203.733,-117.698 l 91.116,-52.606 c 22.437,38.921 64.471,65.113 112.617,65.113 7.91,0 15.642,-0.705 23.163,-2.062 L 302,440.392 Z" />
      <path
         id="path1615"
         fill="#faa515"
         d="m 264.37,423.782 c -9.53,1.72 -19.35,2.61 -29.37,2.61 -61.15,0 -114.53,-33.26 -143.03,-82.69 l 30.51,-17.61 c 22.44,38.92 64.48,65.11 112.62,65.11 7.91,0 15.64,-0.71 23.16,-2.06 z" />
      <path
         id="path1617"
         fill="#fd646f"
         d="m 415.67,411.842 -0.01,0.01 -0.01,0.01 c -5.27,6.32 -10.86,12.35 -16.76,18.07 l -0.01,0.01 c -2.4,2.35 -4.86,4.63 -7.36,6.86 -0.95,0.85 -1.91,1.69 -2.87,2.52 -31.27,27 -69.73,45.89 -112.11,53.43 l -18.28,-103.61 c 17.25,-3.1 33.32,-9.61 47.49,-18.82 1.28,-0.83 2.56,-1.69 3.81,-2.57 2.74,-1.92 5.4,-3.94 7.98,-6.06 0.01,-0.01 0.01,-0.01 0.02,-0.01 6.36,-5.22 12.21,-11.05 17.46,-17.36 0.02,-0.02 0.04,-0.05 0.06,-0.07 l 0.01,-0.01 0.01,-0.01 22.92,19.23 51.49,43.21 z" />
      <path
         id="path1619"
         fill="#fc4755"
         d="m 361.97,366.772 c -24.32,29.28 -58.58,50 -97.6,57.01 l -6.11,-34.64 c 30.72,-5.52 57.69,-21.85 76.84,-44.91 l 20.14,16.9 z" />
      <path
         id="path1621"
         fill="#27bdf3"
         d="m 235.63,26.192 20.37,43.2 -20.37,61.99 h -0.53 c -8.23,0 -16.29,0.76 -24.1,2.23 V 27.422 c 7.92,-0.82 15.96,-1.23 24.1,-1.23 z" />
      <path
         id="path1623"
         fill="#fc4755"
         d="m 415.67,411.842 -0.01,0.01 -0.01,0.01 c -5.27,6.32 -10.86,12.35 -16.76,18.07 l -81.33,-68.25 c 6.36,-5.22 12.21,-11.05 17.46,-17.36 0.02,-0.02 0.04,-0.05 0.06,-0.07 l 0.01,-0.01 57.91,20.15 16.51,42.28 z" />
      <path
         id="path1625"
         fill="#50758d"
         d="m 496.5,261.29 c 0,59.959 -20.197,115.205 -54.138,159.31 -3.475,4.516 -10.01,5.238 -14.375,1.575 l -72.748,-61.049 -20.144,-16.894 c 18.682,-22.5 29.916,-51.417 29.916,-82.943 0,-71.572 -57.876,-129.626 -129.385,-129.91 V 10.116 c 0,-5.696 4.752,-10.233 10.443,-9.998 C 385.347,5.867 496.5,120.605 496.5,261.29 Z" />
      <path
         id="path1627"
         fill="#2b597f"
         d="m 400,261.392 c 0,40.06 -14.28,76.8 -38.03,105.38 l -6.73,-5.64 -20.14,-16.9 c 18.68,-22.5 29.91,-51.42 29.91,-82.94 0,-71.57 -57.87,-129.63 -129.38,-129.91 v -34.99 c 90.84,0.34 164.37,74.08 164.37,165 z" />
    </g>
    <path
       inkscape:export-ydpi="96"
       inkscape:export-xdpi="96"
       style="fill:none;stroke:#ffffff;stroke-width:1.165;stroke-linecap:butt;stroke-linejoin:round;stroke-miterlimit:4;stroke-dasharray:1.165, 4.66;stroke-dashoffset:0;stroke-opacity:1"
       d="M 94.21999,60.793845 V 48.913714 H 81.030236"
       id="path1995-9" />
  </g>
</svg>
